<mxfile host="app.diagrams.net" modified="2024-03-10T20:13:56.896Z" agent="Mozilla/5.0 (Windows NT 10.0; Win64; x64) AppleWebKit/537.36 (KHTML, like Gecko) Chrome/122.0.0.0 Safari/537.36 Edg/122.0.0.0" etag="wfKaPEnUvZsWq0K0ngI8" version="24.0.4" type="device">
  <diagram name="Money_Interface" id="LqBDanxDJ5g0_Z42i6Ls">
    <mxGraphModel dx="1670" dy="892" grid="1" gridSize="10" guides="1" tooltips="1" connect="1" arrows="1" fold="1" page="1" pageScale="1" pageWidth="850" pageHeight="1100" math="0" shadow="0">
      <root>
        <mxCell id="0" />
        <mxCell id="1" parent="0" />
        <mxCell id="VX2OZqBZApSqHbY_zOOW-13" style="edgeStyle=orthogonalEdgeStyle;rounded=0;orthogonalLoop=1;jettySize=auto;html=1;exitX=0.5;exitY=1;exitDx=0;exitDy=0;entryX=0.5;entryY=0;entryDx=0;entryDy=0;" edge="1" parent="1" source="VX2OZqBZApSqHbY_zOOW-11" target="VX2OZqBZApSqHbY_zOOW-12">
          <mxGeometry relative="1" as="geometry" />
        </mxCell>
        <mxCell id="VX2OZqBZApSqHbY_zOOW-11" value="IMoney" style="rounded=1;whiteSpace=wrap;html=1;" vertex="1" parent="1">
          <mxGeometry x="120" y="30" width="120" height="60" as="geometry" />
        </mxCell>
        <mxCell id="VX2OZqBZApSqHbY_zOOW-14" style="edgeStyle=orthogonalEdgeStyle;rounded=0;orthogonalLoop=1;jettySize=auto;html=1;" edge="1" parent="1" source="VX2OZqBZApSqHbY_zOOW-12" target="VX2OZqBZApSqHbY_zOOW-15">
          <mxGeometry relative="1" as="geometry">
            <mxPoint x="140" y="330" as="targetPoint" />
          </mxGeometry>
        </mxCell>
        <mxCell id="VX2OZqBZApSqHbY_zOOW-16" style="edgeStyle=orthogonalEdgeStyle;rounded=0;orthogonalLoop=1;jettySize=auto;html=1;exitX=0.5;exitY=1;exitDx=0;exitDy=0;" edge="1" parent="1" source="VX2OZqBZApSqHbY_zOOW-12" target="VX2OZqBZApSqHbY_zOOW-17">
          <mxGeometry relative="1" as="geometry">
            <mxPoint x="310" y="280" as="targetPoint" />
          </mxGeometry>
        </mxCell>
        <mxCell id="VX2OZqBZApSqHbY_zOOW-12" value="Money" style="rounded=0;whiteSpace=wrap;html=1;" vertex="1" parent="1">
          <mxGeometry x="120" y="130" width="120" height="60" as="geometry" />
        </mxCell>
        <mxCell id="VX2OZqBZApSqHbY_zOOW-15" value="Dollar" style="rounded=0;whiteSpace=wrap;html=1;" vertex="1" parent="1">
          <mxGeometry x="10" y="260" width="120" height="60" as="geometry" />
        </mxCell>
        <mxCell id="VX2OZqBZApSqHbY_zOOW-17" value="Euro" style="rounded=0;whiteSpace=wrap;html=1;" vertex="1" parent="1">
          <mxGeometry x="250" y="260" width="120" height="60" as="geometry" />
        </mxCell>
        <mxCell id="VX2OZqBZApSqHbY_zOOW-20" style="edgeStyle=orthogonalEdgeStyle;rounded=0;orthogonalLoop=1;jettySize=auto;html=1;" edge="1" parent="1" source="VX2OZqBZApSqHbY_zOOW-18" target="VX2OZqBZApSqHbY_zOOW-21">
          <mxGeometry relative="1" as="geometry">
            <mxPoint x="450" y="160" as="targetPoint" />
          </mxGeometry>
        </mxCell>
        <mxCell id="VX2OZqBZApSqHbY_zOOW-22" style="edgeStyle=orthogonalEdgeStyle;rounded=0;orthogonalLoop=1;jettySize=auto;html=1;exitX=1;exitY=0.5;exitDx=0;exitDy=0;" edge="1" parent="1" source="VX2OZqBZApSqHbY_zOOW-18" target="VX2OZqBZApSqHbY_zOOW-23">
          <mxGeometry relative="1" as="geometry">
            <mxPoint x="780" y="130" as="targetPoint" />
          </mxGeometry>
        </mxCell>
        <mxCell id="VX2OZqBZApSqHbY_zOOW-18" value="SaveMoney" style="rounded=1;whiteSpace=wrap;html=1;" vertex="1" parent="1">
          <mxGeometry x="560" y="30" width="120" height="60" as="geometry" />
        </mxCell>
        <mxCell id="VX2OZqBZApSqHbY_zOOW-21" value="SaveMoneyToDataBase" style="rounded=0;whiteSpace=wrap;html=1;" vertex="1" parent="1">
          <mxGeometry x="390" y="130" width="150" height="60" as="geometry" />
        </mxCell>
        <mxCell id="VX2OZqBZApSqHbY_zOOW-23" value="SaveMoneyToLocaleStorage" style="rounded=0;whiteSpace=wrap;html=1;" vertex="1" parent="1">
          <mxGeometry x="680" y="130" width="170" height="60" as="geometry" />
        </mxCell>
        <mxCell id="VX2OZqBZApSqHbY_zOOW-25" style="edgeStyle=orthogonalEdgeStyle;rounded=0;orthogonalLoop=1;jettySize=auto;html=1;entryX=0.5;entryY=0;entryDx=0;entryDy=0;" edge="1" parent="1" source="VX2OZqBZApSqHbY_zOOW-24" target="VX2OZqBZApSqHbY_zOOW-26">
          <mxGeometry relative="1" as="geometry">
            <mxPoint x="330" y="470" as="targetPoint" />
          </mxGeometry>
        </mxCell>
        <mxCell id="VX2OZqBZApSqHbY_zOOW-28" style="edgeStyle=orthogonalEdgeStyle;rounded=0;orthogonalLoop=1;jettySize=auto;html=1;exitX=0;exitY=0.5;exitDx=0;exitDy=0;" edge="1" parent="1" source="VX2OZqBZApSqHbY_zOOW-24" target="VX2OZqBZApSqHbY_zOOW-27">
          <mxGeometry relative="1" as="geometry" />
        </mxCell>
        <mxCell id="VX2OZqBZApSqHbY_zOOW-24" value="IProduct" style="rounded=1;whiteSpace=wrap;html=1;" vertex="1" parent="1">
          <mxGeometry x="120" y="360" width="120" height="60" as="geometry" />
        </mxCell>
        <mxCell id="VX2OZqBZApSqHbY_zOOW-26" value="Product" style="rounded=0;whiteSpace=wrap;html=1;" vertex="1" parent="1">
          <mxGeometry x="259.9999999999998" y="460" width="120" height="60" as="geometry" />
        </mxCell>
        <mxCell id="VX2OZqBZApSqHbY_zOOW-29" style="edgeStyle=orthogonalEdgeStyle;rounded=0;orthogonalLoop=1;jettySize=auto;html=1;" edge="1" parent="1" source="VX2OZqBZApSqHbY_zOOW-27" target="VX2OZqBZApSqHbY_zOOW-30">
          <mxGeometry relative="1" as="geometry">
            <mxPoint x="39.99999999999977" y="640" as="targetPoint" />
          </mxGeometry>
        </mxCell>
        <mxCell id="VX2OZqBZApSqHbY_zOOW-27" value="IW&lt;span style=&quot;background-color: initial;&quot;&gt;arehouse&lt;/span&gt;" style="rounded=1;whiteSpace=wrap;html=1;" vertex="1" parent="1">
          <mxGeometry y="460" width="120" height="60" as="geometry" />
        </mxCell>
        <mxCell id="VX2OZqBZApSqHbY_zOOW-30" value="Warehouse" style="rounded=0;whiteSpace=wrap;html=1;" vertex="1" parent="1">
          <mxGeometry x="-2.2737367544323206e-13" y="560" width="120" height="60" as="geometry" />
        </mxCell>
        <mxCell id="VX2OZqBZApSqHbY_zOOW-31" value="InventoryReport" style="rounded=0;whiteSpace=wrap;html=1;" vertex="1" parent="1">
          <mxGeometry x="440" y="420" width="120" height="60" as="geometry" />
        </mxCell>
        <mxCell id="VX2OZqBZApSqHbY_zOOW-33" style="edgeStyle=orthogonalEdgeStyle;rounded=0;orthogonalLoop=1;jettySize=auto;html=1;exitX=0.5;exitY=1;exitDx=0;exitDy=0;entryX=0.5;entryY=0;entryDx=0;entryDy=0;" edge="1" parent="1" source="VX2OZqBZApSqHbY_zOOW-32" target="VX2OZqBZApSqHbY_zOOW-31">
          <mxGeometry relative="1" as="geometry" />
        </mxCell>
        <mxCell id="VX2OZqBZApSqHbY_zOOW-32" value="IInventoryReport" style="rounded=1;whiteSpace=wrap;html=1;" vertex="1" parent="1">
          <mxGeometry x="440" y="260" width="120" height="60" as="geometry" />
        </mxCell>
        <mxCell id="VX2OZqBZApSqHbY_zOOW-34" value="&lt;div&gt;&lt;span style=&quot;background-color: initial;&quot;&gt;ProductsDispatch&lt;/span&gt;&lt;br&gt;&lt;/div&gt;" style="rounded=0;whiteSpace=wrap;html=1;" vertex="1" parent="1">
          <mxGeometry x="620" y="420" width="120" height="60" as="geometry" />
        </mxCell>
        <mxCell id="VX2OZqBZApSqHbY_zOOW-35" style="edgeStyle=orthogonalEdgeStyle;rounded=0;orthogonalLoop=1;jettySize=auto;html=1;exitX=0.5;exitY=1;exitDx=0;exitDy=0;entryX=0.5;entryY=0;entryDx=0;entryDy=0;" edge="1" parent="1" source="VX2OZqBZApSqHbY_zOOW-36" target="VX2OZqBZApSqHbY_zOOW-34">
          <mxGeometry relative="1" as="geometry" />
        </mxCell>
        <mxCell id="VX2OZqBZApSqHbY_zOOW-36" value="IProductsDispatch" style="rounded=1;whiteSpace=wrap;html=1;" vertex="1" parent="1">
          <mxGeometry x="620" y="260" width="120" height="60" as="geometry" />
        </mxCell>
        <mxCell id="VX2OZqBZApSqHbY_zOOW-37" value="&lt;div&gt;&lt;span style=&quot;background-color: initial;&quot;&gt;ProductsReceipt&lt;/span&gt;&lt;br&gt;&lt;/div&gt;" style="rounded=0;whiteSpace=wrap;html=1;" vertex="1" parent="1">
          <mxGeometry x="220" y="690" width="120" height="60" as="geometry" />
        </mxCell>
        <mxCell id="VX2OZqBZApSqHbY_zOOW-38" style="edgeStyle=orthogonalEdgeStyle;rounded=0;orthogonalLoop=1;jettySize=auto;html=1;exitX=0.5;exitY=1;exitDx=0;exitDy=0;entryX=0.5;entryY=0;entryDx=0;entryDy=0;" edge="1" parent="1" source="VX2OZqBZApSqHbY_zOOW-39" target="VX2OZqBZApSqHbY_zOOW-37">
          <mxGeometry relative="1" as="geometry" />
        </mxCell>
        <mxCell id="VX2OZqBZApSqHbY_zOOW-39" value="IProductsReceipt" style="rounded=1;whiteSpace=wrap;html=1;" vertex="1" parent="1">
          <mxGeometry x="220" y="530" width="120" height="60" as="geometry" />
        </mxCell>
        <mxCell id="VX2OZqBZApSqHbY_zOOW-40" value="&lt;div&gt;PriceReducible&lt;br&gt;&lt;/div&gt;" style="rounded=0;whiteSpace=wrap;html=1;" vertex="1" parent="1">
          <mxGeometry x="420" y="690" width="120" height="60" as="geometry" />
        </mxCell>
        <mxCell id="VX2OZqBZApSqHbY_zOOW-41" style="edgeStyle=orthogonalEdgeStyle;rounded=0;orthogonalLoop=1;jettySize=auto;html=1;exitX=0.5;exitY=1;exitDx=0;exitDy=0;entryX=0.5;entryY=0;entryDx=0;entryDy=0;" edge="1" parent="1" source="VX2OZqBZApSqHbY_zOOW-42" target="VX2OZqBZApSqHbY_zOOW-40">
          <mxGeometry relative="1" as="geometry" />
        </mxCell>
        <mxCell id="VX2OZqBZApSqHbY_zOOW-42" value="IPriceReducible" style="rounded=1;whiteSpace=wrap;html=1;" vertex="1" parent="1">
          <mxGeometry x="420" y="530" width="120" height="60" as="geometry" />
        </mxCell>
        <mxCell id="VX2OZqBZApSqHbY_zOOW-43" value="&lt;div&gt;Reporting&lt;br&gt;&lt;/div&gt;" style="rounded=0;whiteSpace=wrap;html=1;" vertex="1" parent="1">
          <mxGeometry x="620" y="690" width="120" height="60" as="geometry" />
        </mxCell>
        <mxCell id="VX2OZqBZApSqHbY_zOOW-44" style="edgeStyle=orthogonalEdgeStyle;rounded=0;orthogonalLoop=1;jettySize=auto;html=1;exitX=0.5;exitY=1;exitDx=0;exitDy=0;entryX=0.5;entryY=0;entryDx=0;entryDy=0;" edge="1" parent="1" source="VX2OZqBZApSqHbY_zOOW-45" target="VX2OZqBZApSqHbY_zOOW-43">
          <mxGeometry relative="1" as="geometry" />
        </mxCell>
        <mxCell id="VX2OZqBZApSqHbY_zOOW-45" value="IReporting" style="rounded=1;whiteSpace=wrap;html=1;" vertex="1" parent="1">
          <mxGeometry x="620" y="530" width="120" height="60" as="geometry" />
        </mxCell>
      </root>
    </mxGraphModel>
  </diagram>
</mxfile>
